<mxfile host="Electron" modified="2023-09-26T19:38:20.260Z" agent="Mozilla/5.0 (Windows NT 10.0; Win64; x64) AppleWebKit/537.36 (KHTML, like Gecko) draw.io/21.8.2 Chrome/114.0.5735.289 Electron/25.8.1 Safari/537.36" etag="Hg8zQw0gAvVb_-7gN4_q" version="21.8.2" type="device">
  <diagram name="Use-case diagram" id="-hcLdymIl5YI1UWwQXHo">
    <mxGraphModel dx="1036" dy="702" grid="1" gridSize="10" guides="1" tooltips="1" connect="1" arrows="1" fold="1" page="1" pageScale="1" pageWidth="827" pageHeight="1169" math="0" shadow="0">
      <root>
        <mxCell id="0" />
        <mxCell id="1" parent="0" />
        <mxCell id="OODzUO_T71VTLAaAEDP0-20" value="" style="rounded=0;whiteSpace=wrap;html=1;fillColor=default;strokeWidth=2;" parent="1" vertex="1">
          <mxGeometry x="40" y="80" width="740" height="620" as="geometry" />
        </mxCell>
        <mxCell id="OODzUO_T71VTLAaAEDP0-21" value="" style="rounded=1;whiteSpace=wrap;html=1;strokeWidth=2;fillColor=#eeeeee;strokeColor=#36393d;" parent="1" vertex="1">
          <mxGeometry x="169" y="110" width="580" height="560" as="geometry" />
        </mxCell>
        <mxCell id="OODzUO_T71VTLAaAEDP0-1" value="&lt;font style=&quot;&quot;&gt;&lt;span style=&quot;font-size: 16px;&quot;&gt;Administrator&lt;/span&gt;&lt;br style=&quot;border-color: var(--border-color);&quot;&gt;&lt;font style=&quot;font-size: 14px;&quot;&gt;(Администратор)&lt;/font&gt;&lt;/font&gt;" style="shape=umlActor;verticalLabelPosition=bottom;verticalAlign=top;html=1;outlineConnect=0;fillColor=#cce5ff;strokeColor=#36393d;strokeWidth=2;" parent="1" vertex="1">
          <mxGeometry x="79" y="340" width="50" height="100" as="geometry" />
        </mxCell>
        <mxCell id="OODzUO_T71VTLAaAEDP0-9" style="rounded=0;orthogonalLoop=1;jettySize=auto;html=1;exitX=1;exitY=0.5;exitDx=0;exitDy=0;entryX=0;entryY=0;entryDx=0;entryDy=0;strokeWidth=2;" parent="1" source="OODzUO_T71VTLAaAEDP0-2" target="OODzUO_T71VTLAaAEDP0-3" edge="1">
          <mxGeometry relative="1" as="geometry" />
        </mxCell>
        <mxCell id="OODzUO_T71VTLAaAEDP0-11" style="rounded=0;orthogonalLoop=1;jettySize=auto;html=1;exitX=0.5;exitY=0;exitDx=0;exitDy=0;strokeWidth=2;" parent="1" source="OODzUO_T71VTLAaAEDP0-2" target="OODzUO_T71VTLAaAEDP0-4" edge="1">
          <mxGeometry relative="1" as="geometry" />
        </mxCell>
        <mxCell id="OODzUO_T71VTLAaAEDP0-2" value="&lt;font style=&quot;&quot;&gt;&lt;span style=&quot;font-size: 16px;&quot;&gt;Login&lt;/span&gt;&lt;br&gt;&lt;font style=&quot;font-size: 14px;&quot;&gt;(Авторизация)&lt;/font&gt;&lt;/font&gt;" style="ellipse;whiteSpace=wrap;html=1;fillColor=#cce5ff;strokeColor=#36393d;strokeWidth=2;" parent="1" vertex="1">
          <mxGeometry x="209" y="330" width="200" height="120" as="geometry" />
        </mxCell>
        <mxCell id="OODzUO_T71VTLAaAEDP0-10" style="rounded=0;orthogonalLoop=1;jettySize=auto;html=1;exitX=0;exitY=1;exitDx=0;exitDy=0;entryX=1;entryY=0.5;entryDx=0;entryDy=0;strokeWidth=2;" parent="1" source="OODzUO_T71VTLAaAEDP0-3" target="OODzUO_T71VTLAaAEDP0-6" edge="1">
          <mxGeometry relative="1" as="geometry" />
        </mxCell>
        <mxCell id="OODzUO_T71VTLAaAEDP0-3" value="&lt;font style=&quot;&quot;&gt;Login and password verification&lt;br style=&quot;font-size: 16px;&quot;&gt;&lt;font style=&quot;font-size: 14px;&quot;&gt;(Проверка&lt;br&gt;логина и пароля)&lt;/font&gt;&lt;br style=&quot;font-size: 16px;&quot;&gt;&lt;/font&gt;" style="ellipse;whiteSpace=wrap;html=1;fillColor=#cce5ff;strokeColor=#36393d;strokeWidth=2;fontSize=16;" parent="1" vertex="1">
          <mxGeometry x="529" y="430" width="200" height="120" as="geometry" />
        </mxCell>
        <mxCell id="OODzUO_T71VTLAaAEDP0-4" value="&lt;font style=&quot;&quot;&gt;&lt;span style=&quot;font-size: 16px;&quot;&gt;Login by&lt;/span&gt;&lt;br&gt;&lt;span style=&quot;font-size: 16px;&quot;&gt;username and password&lt;/span&gt;&lt;br&gt;&lt;font style=&quot;font-size: 14px;&quot;&gt;(Авторизация&lt;br&gt;по имени пользователя и паролю&lt;/font&gt;&lt;br&gt;&lt;/font&gt;" style="ellipse;whiteSpace=wrap;html=1;fillColor=#cce5ff;strokeColor=#36393d;strokeWidth=2;" parent="1" vertex="1">
          <mxGeometry x="239" y="130" width="200" height="120" as="geometry" />
        </mxCell>
        <mxCell id="OODzUO_T71VTLAaAEDP0-5" value="&lt;font style=&quot;&quot;&gt;&lt;span style=&quot;font-size: 16px;&quot;&gt;Login by&lt;/span&gt;&lt;br&gt;&lt;span style=&quot;font-size: 16px;&quot;&gt;e-mail and password&lt;/span&gt;&lt;br&gt;&lt;font style=&quot;font-size: 14px;&quot;&gt;(Авторизация&lt;br&gt;по эл. почте и паролю)&lt;/font&gt;&lt;br&gt;&lt;/font&gt;" style="ellipse;whiteSpace=wrap;html=1;fillColor=#cce5ff;strokeColor=#36393d;strokeWidth=2;" parent="1" vertex="1">
          <mxGeometry x="469" y="200" width="200" height="120" as="geometry" />
        </mxCell>
        <mxCell id="OODzUO_T71VTLAaAEDP0-6" value="&lt;font style=&quot;&quot;&gt;&lt;span style=&quot;font-size: 16px;&quot;&gt;Access to the system&lt;/span&gt;&lt;br&gt;&lt;font style=&quot;font-size: 14px;&quot;&gt;(Доступ к системе)&lt;/font&gt;&lt;br&gt;&lt;/font&gt;" style="ellipse;whiteSpace=wrap;html=1;fillColor=#cce5ff;strokeColor=#36393d;strokeWidth=2;" parent="1" vertex="1">
          <mxGeometry x="209" y="530" width="200" height="120" as="geometry" />
        </mxCell>
        <mxCell id="OODzUO_T71VTLAaAEDP0-12" style="rounded=0;orthogonalLoop=1;jettySize=auto;html=1;exitX=1;exitY=0;exitDx=0;exitDy=0;entryX=0;entryY=1;entryDx=0;entryDy=0;strokeWidth=2;" parent="1" source="OODzUO_T71VTLAaAEDP0-2" target="OODzUO_T71VTLAaAEDP0-5" edge="1">
          <mxGeometry relative="1" as="geometry" />
        </mxCell>
        <mxCell id="OODzUO_T71VTLAaAEDP0-15" value="" style="endArrow=none;html=1;rounded=0;strokeWidth=2;entryX=0;entryY=0.5;entryDx=0;entryDy=0;" parent="1" target="OODzUO_T71VTLAaAEDP0-2" edge="1">
          <mxGeometry width="50" height="50" relative="1" as="geometry">
            <mxPoint x="139" y="390" as="sourcePoint" />
            <mxPoint x="439" y="330" as="targetPoint" />
          </mxGeometry>
        </mxCell>
        <mxCell id="OODzUO_T71VTLAaAEDP0-16" value="&amp;lt;&amp;lt; include &amp;gt;&amp;gt;" style="text;html=1;strokeColor=none;fillColor=none;align=center;verticalAlign=middle;whiteSpace=wrap;rounded=0;" parent="1" vertex="1">
          <mxGeometry x="229" y="270" width="80" height="30" as="geometry" />
        </mxCell>
        <mxCell id="OODzUO_T71VTLAaAEDP0-17" value="&amp;lt;&amp;lt; include &amp;gt;&amp;gt;" style="text;html=1;strokeColor=none;fillColor=none;align=center;verticalAlign=middle;whiteSpace=wrap;rounded=0;" parent="1" vertex="1">
          <mxGeometry x="379" y="290" width="80" height="30" as="geometry" />
        </mxCell>
        <mxCell id="OODzUO_T71VTLAaAEDP0-18" value="&amp;lt;&amp;lt; include &amp;gt;&amp;gt;" style="text;html=1;strokeColor=none;fillColor=none;align=center;verticalAlign=middle;whiteSpace=wrap;rounded=0;" parent="1" vertex="1">
          <mxGeometry x="449" y="380" width="80" height="30" as="geometry" />
        </mxCell>
        <mxCell id="OODzUO_T71VTLAaAEDP0-19" value="&amp;lt;&amp;lt; include &amp;gt;&amp;gt;" style="text;html=1;strokeColor=none;fillColor=none;align=center;verticalAlign=middle;whiteSpace=wrap;rounded=0;" parent="1" vertex="1">
          <mxGeometry x="429" y="520" width="80" height="30" as="geometry" />
        </mxCell>
        <mxCell id="OODzUO_T71VTLAaAEDP0-22" value="&lt;font style=&quot;font-size: 20px;&quot;&gt;Use-case diagram (диаграмма вариантов использования)&lt;/font&gt;" style="rounded=0;whiteSpace=wrap;html=1;fillColor=#cce5ff;strokeWidth=2;strokeColor=#36393d;" parent="1" vertex="1">
          <mxGeometry x="40" y="40" width="740" height="40" as="geometry" />
        </mxCell>
      </root>
    </mxGraphModel>
  </diagram>
</mxfile>
